<?xml version="1.0" encoding="utf-8"?>
<!-- Generator: Adobe Illustrator 15.0.0, SVG Export Plug-In . SVG Version: 6.00 Build 0)  -->
<!DOCTYPE svg PUBLIC "-//W3C//DTD SVG 1.1//EN" "http://www.w3.org/Graphics/SVG/1.1/DTD/svg11.dtd">
<svg version="1.1" id="Layer_1" xmlns="http://www.w3.org/2000/svg" xmlns:xlink="http://www.w3.org/1999/xlink" x="0px" y="0px"
	 width="787.629px" height="259.616px" viewBox="0 0 787.629 259.616" enable-background="new 0 0 787.629 259.616"
	 xml:space="preserve">
<line fill="none" stroke="#414142" stroke-width="2" stroke-miterlimit="10" x1="38.837" y1="227.142" x2="782.63" y2="227.142"/>
<g opacity="0.4">
	<g>
		<defs>
			<rect id="SVGID_1_" x="38.837" y="173.223" width="743.792" height="1"/>
		</defs>
		<clipPath id="SVGID_2_">
			<use xlink:href="#SVGID_1_"  overflow="visible"/>
		</clipPath>
		
			<line clip-path="url(#SVGID_2_)" fill="none" stroke="#414142" stroke-miterlimit="10" x1="38.837" y1="173.727" x2="782.63" y2="173.727"/>
	</g>
</g>
<g opacity="0.4">
	<g>
		<defs>
			<rect id="SVGID_3_" x="38.837" y="119.813" width="743.792" height="1"/>
		</defs>
		<clipPath id="SVGID_4_">
			<use xlink:href="#SVGID_3_"  overflow="visible"/>
		</clipPath>
		
			<line clip-path="url(#SVGID_4_)" fill="none" stroke="#414142" stroke-miterlimit="10" x1="38.837" y1="120.312" x2="782.63" y2="120.312"/>
	</g>
</g>
<g opacity="0.4">
	<g>
		<defs>
			<rect id="SVGID_5_" x="38.837" y="66.393" width="743.792" height="1"/>
		</defs>
		<clipPath id="SVGID_6_">
			<use xlink:href="#SVGID_5_"  overflow="visible"/>
		</clipPath>
		
			<line clip-path="url(#SVGID_6_)" fill="none" stroke="#414142" stroke-miterlimit="10" x1="38.837" y1="66.896" x2="782.63" y2="66.896"/>
	</g>
</g>
<g opacity="0.4">
	<g>
		<defs>
			<rect id="SVGID_7_" x="38.837" y="12.983" width="743.792" height="1"/>
		</defs>
		<clipPath id="SVGID_8_">
			<use xlink:href="#SVGID_7_"  overflow="visible"/>
		</clipPath>
		
			<line clip-path="url(#SVGID_8_)" fill="none" stroke="#414142" stroke-miterlimit="10" x1="38.837" y1="13.481" x2="782.63" y2="13.481"/>
	</g>
</g>
<g opacity="0.1">
	<g>
		<defs>
			<rect id="SVGID_9_" x="38.837" y="199.934" width="743.792" height="1"/>
		</defs>
		<clipPath id="SVGID_10_">
			<use xlink:href="#SVGID_9_"  overflow="visible"/>
		</clipPath>
		
			<line clip-path="url(#SVGID_10_)" fill="none" stroke="#414142" stroke-miterlimit="10" x1="38.837" y1="200.434" x2="782.63" y2="200.434"/>
	</g>
</g>
<g opacity="0.1">
	<g>
		<defs>
			<rect id="SVGID_11_" x="38.837" y="146.523" width="743.792" height="1"/>
		</defs>
		<clipPath id="SVGID_12_">
			<use xlink:href="#SVGID_11_"  overflow="visible"/>
		</clipPath>
		
			<line clip-path="url(#SVGID_12_)" fill="none" stroke="#414142" stroke-miterlimit="10" x1="38.837" y1="147.02" x2="782.63" y2="147.02"/>
	</g>
</g>
<g opacity="0.1">
	<g>
		<defs>
			<rect id="SVGID_13_" x="38.837" y="93.103" width="743.792" height="1"/>
		</defs>
		<clipPath id="SVGID_14_">
			<use xlink:href="#SVGID_13_"  overflow="visible"/>
		</clipPath>
		
			<line clip-path="url(#SVGID_14_)" fill="none" stroke="#414142" stroke-miterlimit="10" x1="38.837" y1="93.604" x2="782.63" y2="93.604"/>
	</g>
</g>
<g opacity="0.1">
	<g>
		<defs>
			<rect id="SVGID_15_" x="38.837" y="39.693" width="743.792" height="1"/>
		</defs>
		<clipPath id="SVGID_16_">
			<use xlink:href="#SVGID_15_"  overflow="visible"/>
		</clipPath>
		
			<line clip-path="url(#SVGID_16_)" fill="none" stroke="#414142" stroke-miterlimit="10" x1="38.837" y1="40.189" x2="782.63" y2="40.189"/>
	</g>
</g>
<line fill="none" stroke="#414142" stroke-width="2" stroke-miterlimit="10" x1="182.796" y1="252.552" x2="182.796" y2="227.142"/>
<line fill="none" stroke="#414142" stroke-width="2" stroke-miterlimit="10" x1="332.755" y1="252.552" x2="332.755" y2="227.142"/>
<line fill="none" stroke="#414142" stroke-width="2" stroke-miterlimit="10" x1="482.713" y1="252.552" x2="482.713" y2="227.142"/>
<line fill="none" stroke="#414142" stroke-width="2" stroke-miterlimit="10" x1="632.672" y1="252.552" x2="632.672" y2="227.142"/>
<line fill="none" stroke="#414142" stroke-width="2" stroke-miterlimit="10" x1="782.631" y1="252.552" x2="782.631" y2="227.142"/>
<line fill="none" stroke="#414142" stroke-width="2" stroke-miterlimit="10" x1="38.837" y1="252.552" x2="38.837" y2="13.482"/>
<text transform="matrix(1 0 0 1.0374 139.9214 248.416)"><tspan x="0" y="0" fill="#414142" font-family="'ACaslonPro-Regular'" font-size="15.4234">1</tspan><tspan x="7.558" y="0" fill="#414142" font-family="'ACaslonPro-Regular'" font-size="15.4234">9</tspan><tspan x="15.13" y="0" fill="#414142" font-family="'ACaslonPro-Regular'" font-size="15.4234">9</tspan><tspan x="22.688" y="0" fill="#414142" font-family="'ACaslonPro-Regular'" font-size="15.4234">1</tspan></text>
<text transform="matrix(1 0 0 1.0374 289.0811 248.416)"><tspan x="0" y="0" fill="#414142" font-family="'ACaslonPro-Regular'" font-size="15.4234">1</tspan><tspan x="7.573" y="0" fill="#414142" font-family="'ACaslonPro-Regular'" font-size="15.4234">9</tspan><tspan x="15.13" y="0" fill="#414142" font-family="'ACaslonPro-Regular'" font-size="15.4234">9</tspan><tspan x="22.703" y="0" fill="#414142" font-family="'ACaslonPro-Regular'" font-size="15.4234">7</tspan></text>
<text transform="matrix(1 0 0 1.0374 438.2402 248.416)"><tspan x="0" y="0" fill="#414142" font-family="'ACaslonPro-Regular'" font-size="15.4234">2</tspan><tspan x="7.573" y="0" fill="#414142" font-family="'ACaslonPro-Regular'" font-size="15.4234">0</tspan><tspan x="15.13" y="0" fill="#414142" font-family="'ACaslonPro-Regular'" font-size="15.4234">0</tspan><tspan x="22.703" y="0" fill="#414142" font-family="'ACaslonPro-Regular'" font-size="15.4234">2</tspan></text>
<text transform="matrix(1 0 0 1.0374 587.4004 248.416)"><tspan x="0" y="0" fill="#414142" font-family="'ACaslonPro-Regular'" font-size="15.4234">2</tspan><tspan x="7.573" y="0" fill="#414142" font-family="'ACaslonPro-Regular'" font-size="15.4234">0</tspan><tspan x="15.13" y="0" fill="#414142" font-family="'ACaslonPro-Regular'" font-size="15.4234">0</tspan><tspan x="22.703" y="0" fill="#414142" font-family="'ACaslonPro-Regular'" font-size="15.4234">7</tspan></text>
<text transform="matrix(1 0 0 1.0374 736.5605 248.416)"><tspan x="0" y="0" fill="#414142" font-family="'ACaslonPro-Regular'" font-size="15.4234">20</tspan><tspan x="15.146" y="0" fill="#414142" font-family="'ACaslonPro-Regular'" font-size="15.4234">1</tspan><tspan x="22.703" y="0" fill="#414142" font-family="'ACaslonPro-Regular'" font-size="15.4234">3</tspan></text>
<text transform="matrix(1 0 0 1.0374 7.5576 227.1357)"><tspan x="0" y="0" fill="#414142" font-family="'ACaslonPro-Regular'" font-size="15.4234">0</tspan><tspan x="7.558" y="0" fill="#414142" font-family="'ACaslonPro-Regular'" font-size="15.4234">%</tspan></text>
<text transform="matrix(1 0 0 1.0374 0 173.7285)"><tspan x="0" y="0" fill="#414142" font-family="'ACaslonPro-Regular'" font-size="15.4234">10</tspan><tspan x="15.115" y="0" fill="#414142" font-family="'ACaslonPro-Regular'" font-size="15.4234">%</tspan></text>
<text transform="matrix(1 0 0 1.0374 0 120.3203)"><tspan x="0" y="0" fill="#414142" font-family="'ACaslonPro-Regular'" font-size="15.4234">20</tspan><tspan x="15.115" y="0" fill="#414142" font-family="'ACaslonPro-Regular'" font-size="15.4234">%</tspan></text>
<text transform="matrix(1 0 0 1.0374 0 66.9121)"><tspan x="0" y="0" fill="#414142" font-family="'ACaslonPro-Regular'" font-size="15.4234">30</tspan><tspan x="15.115" y="0" fill="#414142" font-family="'ACaslonPro-Regular'" font-size="15.4234">%</tspan></text>
<text transform="matrix(1 0 0 1.0374 0 13.5039)"><tspan x="0" y="0" fill="#414142" font-family="'ACaslonPro-Regular'" font-size="15.4234">40</tspan><tspan x="15.115" y="0" fill="#414142" font-family="'ACaslonPro-Regular'" font-size="15.4234">%</tspan></text>
<path fill="#414142" d="M187.794,167.606c0,2.76-2.238,4.999-4.998,4.999c-2.761,0-4.999-2.239-4.999-4.999
	c0-2.761,2.238-4.999,4.999-4.999C185.556,162.607,187.794,164.846,187.794,167.606"/>
<path fill="#414142" d="M337.753,136.781c0,2.762-2.238,4.999-4.998,4.999c-2.761,0-4.999-2.237-4.999-4.999
	c0-2.76,2.238-4.999,4.999-4.999C335.515,131.782,337.753,134.021,337.753,136.781"/>
<path fill="#414142" d="M482.713,129.283c0,2.76-2.238,4.999-4.998,4.999c-2.761,0-5-2.239-5-4.999s2.239-4.999,5-4.999
	C480.475,124.284,482.713,126.523,482.713,129.283"/>
<path fill="#414142" d="M637.67,96.937c0,2.76-2.237,4.999-4.999,4.999c-2.76,0-4.997-2.239-4.997-4.999
	c0-2.761,2.237-4.999,4.997-4.999C635.433,91.938,637.67,94.176,637.67,96.937"/>
<path fill="#414142" d="M787.629,36.023c0,2.761-2.238,4.999-4.999,4.999c-2.76,0-4.998-2.238-4.998-4.999
	c0-2.76,2.238-4.998,4.998-4.998C785.391,31.025,787.629,33.264,787.629,36.023"/>
<g opacity="0.4">
	<g>
		<defs>
			<rect id="SVGID_17_" x="38.264" y="34.633" width="744.935" height="193.891"/>
		</defs>
		<clipPath id="SVGID_18_">
			<use xlink:href="#SVGID_17_"  overflow="visible"/>
		</clipPath>
		<polyline clip-path="url(#SVGID_18_)" fill="none" stroke="#548E83" stroke-width="3" stroke-miterlimit="10" points="
			38.837,227.142 182.796,167.606 332.755,136.781 477.715,129.284 632.672,96.937 782.63,36.023 		"/>
	</g>
</g>
</svg>
