<?xml version="1.0" encoding="utf-8"?>
<!-- Generator: Adobe Illustrator 15.0.0, SVG Export Plug-In . SVG Version: 6.00 Build 0)  -->
<!DOCTYPE svg PUBLIC "-//W3C//DTD SVG 1.1//EN" "http://www.w3.org/Graphics/SVG/1.1/DTD/svg11.dtd">
<svg version="1.1" id="Layer_1" xmlns="http://www.w3.org/2000/svg" xmlns:xlink="http://www.w3.org/1999/xlink" x="0px" y="0px"
	 width="50.068px" height="50.07px" viewBox="0 0 50.068 50.07" enable-background="new 0 0 50.068 50.07" xml:space="preserve">
<path fill="#4D4D4D" d="M0,25.034C0,11.208,11.209,0,25.034,0C38.86,0,50.068,11.208,50.068,25.034
	c0,13.827-11.208,25.036-25.034,25.036C11.209,50.07,0,38.861,0,25.034 M39.387,25.217h2.704l-6.074-13.868h-3.983l6.103,13.868
	h-2.779v3.68c0.007,2.23-0.926,3.185-3.955,3.145v7.102h3.945V32.04h1.303c1.154,0.03,2.717-0.907,2.738-2.729L39.387,25.217
	L39.387,25.217z M20.264,11.348c-6.101,0-11.116,4.258-11.116,10.574c0,5.312,3.196,9.105,7.97,9.83v7.389h9.934V32.04h1.38
	c1.608-0.157,2.702-1.225,2.719-2.717v-4.106h2.706l-6.157-13.868H20.264z M25.748,23.377c1.414,0,2.562-1.146,2.562-2.562
	c0-1.413-1.146-2.562-2.562-2.562s-2.562,1.147-2.562,2.562C23.187,22.23,24.334,23.377,25.748,23.377"/>
</svg>
