<?xml version="1.0" encoding="utf-8"?>
<!-- Generator: Adobe Illustrator 16.0.0, SVG Export Plug-In . SVG Version: 6.00 Build 0)  -->
<!DOCTYPE svg PUBLIC "-//W3C//DTD SVG 1.1//EN" "http://www.w3.org/Graphics/SVG/1.1/DTD/svg11.dtd">
<svg version="1.1" id="Layer_1" xmlns="http://www.w3.org/2000/svg" xmlns:xlink="http://www.w3.org/1999/xlink" x="0px" y="0px"
	 width="24px" height="24px" viewBox="0 0 24 24" enable-background="new 0 0 24 24" xml:space="preserve">
<g>
	<path fill="#414042" d="M12,24C5.383,24,0,18.617,0,12S5.383,0,12,0c6.616,0,12,5.383,12,12S18.617,24,12,24z M12,2
		C6.487,2,2,6.486,2,12s4.486,10,10,10s10-4.486,10-10S17.514,2,12,2z"/>
	<g>
		<defs>
			<circle id="SVGID_1_" cx="12" cy="12" r="7.632"/>
		</defs>
		<clipPath id="SVGID_2_">
			<use xlink:href="#SVGID_1_"  overflow="visible"/>
		</clipPath>
		<path clip-path="url(#SVGID_2_)" fill="#414042" d="M24.733,1.095c-3.548,0.765-7.059,1.692-10.584,2.551
			c0.332-0.231,0.664-0.462,0.996-0.695c0.244-0.173,0.446-0.971-0.078-0.855c-1.15,0.253-2.266,0.589-3.369,0.954
			c0.068-0.061,0.141-0.118,0.209-0.18c0.352-0.312,0.08-1.049-0.385-0.694c-0.726,0.553-1.438,1.118-2.131,1.704
			c-1.263,0.492-2.515,1.02-3.765,1.574C5.295,5.601,5.03,6.458,5.6,6.363C6,6.297,6.395,6.219,6.793,6.146
			C4.77,7.781,2.725,9.389,0.706,11.028c-0.92,0.353-1.838,0.713-2.746,1.092c-0.439,0.184-0.535,1.06,0.082,0.885
			c1.428-0.405,2.85-0.835,4.271-1.271c-0.334,0.42-0.658,0.849-0.969,1.294C1.295,13.1,1.272,13.197,1.27,13.297
			c-1.662,0.493-3.323,0.984-4.977,1.49c-0.471,0.145-0.523,1.055,0.08,0.885c2.858-0.807,5.706-1.664,8.562-2.489
			c-0.138,0.108-0.274,0.218-0.413,0.325c-0.188,0.146-0.254,0.409-0.217,0.607c-0.004,0.002-0.008,0.004-0.012,0.005
			c-0.284,0.107-0.627,0.86-0.129,0.905c0.557,0.049,1.113,0.065,1.668,0.087c-0.434,0.428-0.856,0.87-1.266,1.329
			c-1.028,0.549-2.049,1.117-3.045,1.733C1.246,18.346,1.088,19.117,1.6,19.03c0.873-0.149,1.736-0.329,2.596-0.526
			c-0.002,0.001-0.004,0.002-0.006,0.004c-0.34,0.244-0.389,0.994,0.184,0.83c0.914-0.262,1.812-0.555,2.705-0.861
			c0.028,0.002,0.057,0.006,0.085,0.008c-0.325,0.229-0.655,0.451-0.974,0.69c-0.338,0.253-0.393,0.978,0.184,0.83
			c1.521-0.391,3.025-0.831,4.52-1.296c0.238,0.008,0.475,0.018,0.711,0.023c0.006,0.192,0.096,0.354,0.33,0.298
			c0.182-0.043,0.36-0.095,0.541-0.139c-0.617,0.297-1.234,0.592-1.849,0.896c-0.409,0.203-0.55,1.067,0.081,0.885
			c2.02-0.584,4.029-1.209,6.005-1.916c0.491-0.005,0.981-0.01,1.472-0.017c-2.266,0.502-4.531,1.112-6.328,2.436
			c-0.416,0.307-0.238,1.164,0.289,0.775c2.852-2.099,6.9-2.327,10.229-3.278c0.405-0.116,0.566-0.912,0.025-0.91
			c-1.053,0.004-2.105,0.017-3.158,0.031c1.791-0.73,3.543-1.552,5.236-2.51c0.377-0.213,0.361-1.012-0.184-0.83
			c-1.179,0.393-2.358,0.779-3.539,1.158c0.535-0.305,1.077-0.601,1.604-0.925c0.451-0.114,0.902-0.223,1.35-0.349
			c0.416-0.117,0.559-0.891,0.025-0.91c-1.146-0.041-2.291-0.018-3.434,0.028c0.195-0.305,0.119-0.8-0.34-0.669
			c-0.415,0.119-0.827,0.248-1.24,0.373c0.701-0.395,1.398-0.797,2.092-1.21c0.365-0.217,0.33-1.085-0.185-0.83
			c-1.806,0.896-3.624,1.77-5.423,2.678c-0.727,0.062-1.452,0.118-2.178,0.176c1.307-0.681,2.578-1.429,3.811-2.246
			c0.098-0.042,0.194-0.086,0.291-0.129c2.047-0.415,4.098-0.811,6.141-1.235c0.436-0.091,0.741-0.976,0.131-0.936
			c-0.614,0.04-1.229,0.089-1.843,0.14c0.161-0.078,0.325-0.15,0.485-0.229c0.316-0.156,0.615-0.982,0.025-0.91
			c-0.572,0.07-1.139,0.168-1.707,0.253c-0.036-0.226-0.201-0.372-0.504-0.173c-0.164,0.108-0.332,0.213-0.497,0.32
			c-1.454,0.238-2.898,0.515-4.335,0.827c2.535-0.992,5.033-2.086,7.453-3.372c0.303-0.16,0.418-0.938-0.078-0.855
			c-0.91,0.152-1.815,0.332-2.717,0.52c0.455-0.197,0.91-0.394,1.359-0.609c0.316-0.152,0.59-1.043,0.025-0.91
			c-0.036,0.008-0.071,0.018-0.107,0.026V4.453c-0.001,0.001-0.002,0.001-0.004,0.002c-0.543,0.129-1.084,0.266-1.625,0.4
			c1.871-0.869,3.705-1.82,5.48-2.905C25.084,1.783,25.241,0.985,24.733,1.095z M12.846,3.581c-0.264,0.185-0.523,0.373-0.785,0.56
			c-0.735,0.171-1.472,0.335-2.209,0.493c0.021-0.019,0.041-0.037,0.064-0.056C10.879,4.21,11.856,3.875,12.846,3.581z M7.934,8.363
			C8.042,8.346,8.145,8.32,8.252,8.303C7.387,8.607,6.52,8.912,5.655,9.219C6.186,8.712,6.731,8.22,7.292,7.739
			c0.717-0.558,1.422-1.136,2.117-1.733c0.023-0.018,0.046-0.037,0.07-0.056L9.477,5.949c0.032-0.027,0.064-0.053,0.097-0.08
			c0.093-0.08,0.142-0.189,0.155-0.302c0.189-0.041,0.381-0.077,0.57-0.119C9.422,6.123,8.563,6.819,7.76,7.589
			C7.549,7.79,7.483,8.438,7.934,8.363z M11.452,10.08c0.793-0.479,1.588-0.949,2.389-1.414c-0.488,0.365-0.977,0.731-1.467,1.094
			C12.068,9.87,11.758,9.973,11.452,10.08z M9.616,10.253c0.26-0.241,0.513-0.489,0.766-0.737c0.443-0.188,0.892-0.367,1.342-0.543
			C11.018,9.395,10.315,9.821,9.616,10.253z M9.543,11.898c-0.35,0.273-0.691,0.557-1.033,0.837
			c-0.855,0.247-1.705,0.517-2.551,0.802c0.584-0.381,1.166-0.765,1.754-1.139C8.323,12.229,8.932,12.061,9.543,11.898z
			 M13.049,11.248c0.756-0.053,1.512-0.114,2.266-0.181c-0.967,0.204-1.93,0.421-2.892,0.647
			C12.635,11.562,12.842,11.405,13.049,11.248z M6.265,11.066c0.024,0.157,0.126,0.287,0.335,0.297
			c0.191,0.01,0.381,0.007,0.57,0.014c-0.079,0.066-0.156,0.133-0.236,0.199c-1.061,0.333-2.123,0.659-3.189,0.979
			C4.598,12.078,5.438,11.582,6.265,11.066z M8.616,13.656c0.002,0.281,0.193,0.518,0.529,0.294
			c0.407-0.271,0.818-0.542,1.229-0.816c0.848-0.222,1.697-0.432,2.551-0.628c-1.283,0.555-2.564,1.115-3.834,1.697
			c-0.38,0.012-0.76,0.009-1.139,0.012C8.169,14.025,8.393,13.842,8.616,13.656z M16.94,7.475c0.793-0.191,1.586-0.379,2.384-0.549
			c-0.993,0.464-1.997,0.9-3.011,1.317C16.53,7.993,16.743,7.741,16.94,7.475z M5.01,10.903c-0.631,0.376-1.277,0.728-1.923,1.081
			c0.179-0.219,0.354-0.439,0.538-0.652C4.086,11.189,4.548,11.047,5.01,10.903z M4.094,17.625c0.166-0.093,0.336-0.182,0.504-0.271
			c0.035-0.003,0.068-0.003,0.109-0.016c0.766-0.232,1.521-0.483,2.271-0.749c-0.257,0.171-0.516,0.337-0.77,0.51
			C5.506,17.286,4.803,17.464,4.094,17.625z M9.778,17.721c0.365-0.225,0.736-0.438,1.105-0.654
			c1.055-0.232,2.112-0.445,3.172-0.649c-0.289,0.204-0.573,0.414-0.854,0.63c-0.742,0.247-1.482,0.492-2.229,0.725
			C10.575,17.758,10.176,17.741,9.778,17.721z M14.381,15.453c0.795-0.264,1.592-0.523,2.389-0.779
			c-0.258,0.154-0.516,0.312-0.771,0.47C15.459,15.246,14.92,15.35,14.381,15.453z M12.71,15.1c-1.294,0.43-2.589,0.854-3.891,1.251
			c0.692-0.444,1.39-0.883,2.089-1.316c0.734-0.045,1.471-0.097,2.205-0.155C12.977,14.951,12.845,15.027,12.71,15.1z M13.188,6.367
			c0.156-0.201,0.317-0.396,0.468-0.604c0.243-0.332-0.067-0.911-0.466-0.589c-0.719,0.579-1.453,1.136-2.188,1.688
			c-0.526,0.111-1.057,0.205-1.584,0.305c0.897-0.76,1.832-1.473,2.791-2.156c3.253-0.76,6.486-1.613,9.739-2.38
			c-2.528,1.344-5.149,2.479-7.817,3.515C13.819,6.224,13.502,6.293,13.188,6.367z"/>
	</g>
</g>
</svg>
